<svg xmlns="http://www.w3.org/2000/svg" width="30.37" height="30.38" viewBox="0 0 30.37 30.38">
  <defs>
    <style>
      .cls-1 {
        fill: #fff;
        fill-rule: evenodd;
      }
    </style>
  </defs>
  <path id="rss" class="cls-1" d="M1114.09,2420.29a4.008,4.008,0,0,1,.01,5.69h-0.01a4.04,4.04,0,0,1-6.89-2.84,4.048,4.048,0,0,1,1.19-2.85h0a4,4,0,0,1,2.85-1.17A4.037,4.037,0,0,1,1114.09,2420.29Zm0,0h0Zm-5.7,5.69h0Zm-1.18-18.84v5.8a14.254,14.254,0,0,1,14.22,14.24h0v0.02h5.83A20.11,20.11,0,0,0,1107.21,2407.14Zm0.01-10.34v5.81a24.61,24.61,0,0,1,24.56,24.59h5.82A30.455,30.455,0,0,0,1107.22,2396.8Z" transform="translate(-1107.22 -2396.81)"/>
</svg>
