<svg xmlns="http://www.w3.org/2000/svg" width="44" height="30.38" viewBox="0 0 44 30.38">
  <defs>
    <style>
      .cls-1 {
        fill: #fff;
        fill-rule: evenodd;
      }
    </style>
  </defs>
  <path id="twitter" class="cls-1" d="M1063.01,2410.32c2.47-.21,4.14-1.33,4.79-2.86a7.8,7.8,0,0,1-5.19.57c-0.07-.35-0.15-0.7-0.23-1-1.17-4.3-5.15-7.75-9.33-7.33,0.34-.13.68-0.27,1.02-0.38,0.46-.16,3.16-0.6,2.73-1.56-0.36-.84-3.65.63-4.27,0.83,0.82-.31,2.17-0.84,2.32-1.79a6.543,6.543,0,0,0-3.44,1.64,2.485,2.485,0,0,0,.66-1.31c-3.35,2.14-5.3,6.46-6.88,10.66a16.6,16.6,0,0,0-3.34-2.69,87.157,87.157,0,0,0-11.28-4.98c-0.16,1.72.85,4.02,3.76,5.55a9.078,9.078,0,0,0-2.71.32c0.38,1.98,1.61,3.61,4.93,4.4a4.03,4.03,0,0,0-3.02,1.19,5.109,5.109,0,0,0,5.42,2.66c-3.37,1.46-1.37,4.16,1.37,3.76a11.637,11.637,0,0,1-16.31.44c11.07,15.14,35.15,8.95,38.73-5.63a6.649,6.649,0,0,0,5.25-1.99A10.671,10.671,0,0,1,1063.01,2410.32Z" transform="translate(-1024 -2396.81)"/>
</svg>
